<svg width="560" height="107" viewBox="0 0 560 107" fill="none" xmlns="http://www.w3.org/2000/svg">
<g clip-path="url(#clip0)">
<path d="M492.244 46.7093C494.156 44.3517 496.571 42.458 499.31 41.169C502.049 39.88 505.041 39.2288 508.065 39.2639C511.088 39.2989 514.065 40.0193 516.774 41.3715C519.483 42.7237 521.854 44.6729 523.711 47.0741L524.617 46.1256C527.773 42.4476 532.158 40.0597 536.943 39.4131C541.35 38.6253 545.891 39.2108 549.958 41.0912C552.453 42.212 554.654 43.9039 556.385 46.032C558.116 48.1601 559.329 50.6656 559.927 53.3489C560.518 55.735 560.811 58.1861 560.797 60.6452C560.797 68.671 560.797 76.7334 560.797 84.7593C560.797 85.197 560.797 85.6348 560.797 86.1091C560.779 86.5356 560.677 86.9542 560.497 87.341C560.318 87.7278 560.064 88.0752 559.751 88.3632C559.438 88.6512 559.071 88.8743 558.672 89.0196C558.273 89.1649 557.85 89.2296 557.426 89.21C555.372 89.21 553.305 89.21 551.227 89.21C550.779 89.2308 550.331 89.1572 549.912 88.9941C549.494 88.8309 549.114 88.5817 548.797 88.2624C548.48 87.9432 548.232 87.5608 548.07 87.1398C547.908 86.7187 547.835 86.2683 547.855 85.8172C547.855 83.8837 547.855 81.8773 547.855 79.9438V61.3018C547.894 59.2673 547.485 57.2493 546.659 55.3919C545.757 53.5509 544.278 52.0601 542.449 51.1501C540.621 50.2401 538.546 49.9615 536.544 50.3575C534.064 50.5253 531.741 51.6439 530.055 53.4831C528.369 55.3222 527.448 57.7419 527.481 60.2439C527.481 62.6516 527.481 65.0959 527.481 67.5401V83.9202C527.518 84.6007 527.518 85.2827 527.481 85.9632C527.463 86.7859 527.127 87.5692 526.545 88.1477C525.964 88.7263 525.181 89.0548 524.364 89.0641C522.188 89.0641 520.013 89.0641 517.838 89.0641C517.376 89.0729 516.917 88.9815 516.492 88.7962C516.068 88.6108 515.688 88.3358 515.379 87.9898C515.069 87.6438 514.838 87.2349 514.699 86.7908C514.56 86.3467 514.518 85.8778 514.575 85.4159C514.575 80.9287 514.575 76.4415 514.575 71.9179C514.575 68.2697 514.575 64.6216 514.575 60.9735C514.645 58.7205 514.146 56.4865 513.125 54.4798C512.072 52.8503 510.55 51.5827 508.762 50.8462C506.975 50.1097 505.006 49.9392 503.12 50.3575C500.502 50.5716 498.075 51.8202 496.37 53.8301C494.665 55.8401 493.82 58.4478 494.02 61.0829C494.02 68.817 494.02 76.551 494.02 84.285C494.057 84.8681 494.057 85.453 494.02 86.0361C493.993 86.8463 493.658 87.6152 493.085 88.185C492.512 88.7548 491.744 89.0824 490.939 89.1005C488.739 89.1005 486.492 89.1005 484.196 89.1005C483.378 89.0732 482.6 88.7339 482.021 88.1513C481.442 87.5688 481.105 86.7866 481.078 85.9632C481.078 85.4159 481.078 84.8687 481.078 84.285V43.8638C481.078 41.1277 482.311 39.9238 485.066 39.8509C486.226 39.8509 487.386 39.8509 488.691 39.8509C489.653 39.8509 490.575 40.2352 491.255 40.9194C491.934 41.6035 492.316 42.5314 492.316 43.499C492.316 44.411 492.316 45.323 492.316 46.2351H492.534" fill="#FFFFFF"/>
<path d="M384.429 62.141C384.596 61.8091 384.79 61.4918 385.009 61.1925C390.483 55.0636 395.885 48.9348 401.431 42.733C402.188 41.7663 403.168 41.0013 404.287 40.5052C405.406 40.0091 406.629 39.7969 407.848 39.8874C409.588 39.8874 411.473 39.8874 413.141 39.8874H413.467C414.591 39.8874 415.787 39.8874 416.295 41.1643C416.802 42.4411 416.041 43.2802 415.316 44.1192C410.096 49.8103 404.851 55.4771 399.583 61.1195C399.22 61.5208 398.93 61.9221 398.531 62.3234C400.815 65.2784 403.026 68.1604 405.31 71.0424C408.936 75.6755 412.561 80.2722 416.186 84.9053C416.875 85.7808 417.673 86.6929 417.092 87.8968C416.512 89.1006 415.28 89.1006 414.084 89.1006H407.232C406.2 89.1571 405.17 88.9451 404.243 88.485C403.316 88.025 402.523 87.3324 401.939 86.474L390.012 70.5317L388.852 69.0359C387.257 70.7506 385.807 72.2828 384.356 73.9244C384.171 74.2704 384.096 74.6649 384.139 75.0553C384.139 78.3751 384.139 81.6585 384.139 84.9782C384.139 88.298 382.943 89.1006 380.006 89.1006H375.221C372.502 89.1006 371.197 87.7873 371.197 85.0877C371.197 81.6585 371.197 78.2292 371.197 74.7635V25.4044C371.197 22.2305 372.031 21.1725 375.185 20.5524C376.997 20.1511 378.81 19.8592 380.586 19.5674C381.005 19.451 381.445 19.432 381.872 19.5119C382.299 19.5919 382.703 19.7686 383.052 20.0287C383.401 20.2888 383.687 20.6255 383.888 21.0133C384.089 21.4011 384.2 21.8298 384.211 22.267C384.248 22.911 384.248 23.5565 384.211 24.2005V61.8126C384.323 61.9612 384.474 62.0751 384.646 62.141" fill="#FFFFFF"/>
<path d="M447.545 90.9247C436.669 90.7423 428.294 87.0942 422.929 77.9374C419.986 72.7441 418.947 66.6763 419.993 60.7912C420.821 54.6936 423.917 49.1393 428.657 45.2502C432.442 42.0807 437.043 40.0567 441.925 39.4132C446.664 38.6708 451.513 39.1349 456.028 40.763C459.599 41.9224 462.846 43.9196 465.499 46.59C468.153 49.2604 470.138 52.5275 471.29 56.1216C472.818 60.2554 473.263 64.7151 472.584 69.0722C471.904 73.4293 470.123 77.5374 467.411 81.0018C463.941 85.5597 458.964 88.7173 453.381 89.9032C451.242 90.3775 449.031 90.6329 447.545 90.8518V90.9247ZM446.602 50.3576C442.985 50.2392 439.469 51.5651 436.82 54.0461C434.171 56.5271 432.605 59.9616 432.464 63.6003C432.183 65.5313 432.308 67.5001 432.831 69.3793C433.354 71.2585 434.264 73.0061 435.501 74.509C436.738 76.0119 438.275 77.2365 440.013 78.1036C441.75 78.9708 443.649 79.461 445.587 79.5426C447.429 79.6666 449.276 79.4118 451.017 78.7938C452.758 78.1758 454.356 77.2075 455.712 75.948C457.069 74.6884 458.157 73.164 458.909 71.4676C459.661 69.7712 460.063 67.9384 460.088 66.081C460.344 64.136 460.188 62.1586 459.63 60.2786C459.072 58.3987 458.125 56.6589 456.852 55.1737C455.578 53.6884 454.006 52.4914 452.239 51.6613C450.473 50.8312 448.551 50.3869 446.602 50.3576Z" fill="#FFFFFF"/>
<path d="M237.135 90.9246C230.47 90.8362 224.05 88.3813 219.009 83.9931C216.281 81.5823 214.123 78.5884 212.693 75.2305C211.263 71.8726 210.597 68.2355 210.743 64.5851C210.736 61.3172 211.373 58.0802 212.617 55.0619C213.862 52.0435 215.689 49.3036 217.994 47.0011C221.475 43.4074 225.944 40.9428 230.827 39.9238C237.043 38.4648 243.566 39.1456 249.352 41.8573C252.715 43.364 255.685 45.6333 258.031 48.4876C260.377 51.342 262.035 54.7039 262.874 58.3103C263.83 61.8027 264.037 65.4597 263.481 69.0386C262.924 72.6175 261.618 76.0364 259.648 79.0682C257.938 81.7926 255.703 84.1451 253.076 85.9871C250.449 87.8291 247.481 89.1234 244.349 89.7936C241.92 90.3409 239.455 90.5598 237.099 90.9246H237.135ZM223.432 64.9499V66.5186C223.432 67.0293 223.432 67.5036 223.685 68.0143C224.024 70.4423 225.042 72.7232 226.622 74.5902C228.201 76.4572 230.276 77.8332 232.603 78.5574C234.972 79.4699 237.551 79.6765 240.032 79.1524C242.514 78.6284 244.793 77.3959 246.597 75.6024C248.364 73.8739 249.664 71.7208 250.374 69.3463C251.085 66.9718 251.182 64.4543 250.657 62.0314C250.127 58.5207 248.272 55.351 245.478 53.1824C242.684 51.0137 239.166 50.0133 235.658 50.3894C232.149 50.7655 228.919 52.4892 226.642 55.2015C224.364 57.9139 223.215 61.4057 223.432 64.9499Z" fill="#FFFFFF"/>
<path d="M282.958 46.3084C284.693 44.7194 286.508 43.2216 288.396 41.8212C292.129 39.5678 296.533 38.7149 300.831 39.4134C304.306 39.7133 307.631 40.9761 310.438 43.0615C314.363 46.0126 316.969 50.4057 317.688 55.2827C318.022 56.9898 318.204 58.7234 318.232 60.4631C318.232 68.5254 318.232 76.6243 318.232 84.6866C318.267 85.1359 318.267 85.5872 318.232 86.0364C318.213 86.8495 317.881 87.6235 317.306 88.1952C316.732 88.7669 315.959 89.0916 315.15 89.1009C313.011 89.1009 310.909 89.1009 308.77 89.1009C307.924 89.1009 307.112 88.7626 306.514 88.1606C305.916 87.5585 305.58 86.7419 305.58 85.8905C305.58 83.9935 305.58 82.2424 305.58 80.1994V61.3021C305.641 59.312 305.27 57.3325 304.492 55.5016C303.517 53.5993 301.953 52.0683 300.037 51.1402C298.12 50.2121 295.956 49.9374 293.87 50.3578C292.554 50.4679 291.273 50.8389 290.101 51.4496C288.928 52.0603 287.887 52.8984 287.038 53.9158C286.189 54.9331 285.548 56.1096 285.153 57.3773C284.757 58.645 284.615 59.9789 284.734 61.3021C284.734 68.9632 284.734 76.5878 284.734 84.2853C284.734 84.8326 284.734 85.3798 284.734 85.927C284.759 86.4014 284.681 86.8756 284.503 87.316C284.326 87.7564 284.056 88.1524 283.71 88.4759C283.364 88.7995 282.952 89.0427 282.503 89.1885C282.053 89.3343 281.578 89.3791 281.109 89.3197H275.49C275.024 89.3665 274.554 89.3129 274.11 89.1625C273.666 89.0121 273.259 88.7683 272.916 88.4473C272.573 88.1264 272.302 87.7356 272.121 87.3011C271.939 86.8665 271.852 86.3981 271.865 85.927C271.865 85.3798 271.865 84.8326 271.865 84.2853V44.8126C271.865 40.7997 272.771 39.8877 276.759 39.8877C277.593 39.8877 278.39 39.8877 279.224 39.8877C279.71 39.8492 280.198 39.9172 280.655 40.087C281.113 40.2567 281.528 40.5242 281.872 40.8709C282.217 41.2177 282.483 41.6355 282.651 42.0955C282.82 42.5556 282.888 43.0469 282.849 43.5358C282.849 44.4478 282.849 45.3963 282.849 46.1259" fill="#FFFFFF"/>
<path d="M160.062 67.6862V84.577C160.051 85.2773 159.966 85.9744 159.808 86.6565C159.657 87.3607 159.266 87.9899 158.704 88.4359C158.142 88.882 157.443 89.117 156.727 89.1007C154.515 89.1007 152.268 89.1007 150.02 89.1007C149.239 89.1193 148.478 88.8522 147.878 88.3491C147.278 87.8459 146.88 87.1408 146.757 86.3646C146.612 85.7059 146.539 85.033 146.54 84.3582V50.3576C146.54 48.9349 146.54 48.9349 145.09 48.8984C143.64 48.8619 142.516 48.8984 141.247 48.8984C140.854 48.923 140.459 48.8686 140.087 48.7384C139.715 48.6082 139.372 48.4048 139.078 48.14C138.785 47.8752 138.546 47.5543 138.377 47.196C138.208 46.8377 138.112 46.4491 138.093 46.0528C137.875 44.6752 137.875 43.2716 138.093 41.894C138.311 40.0699 139.543 39.1944 141.718 39.0849C142.806 39.0849 143.93 39.0849 145.017 39.0849C146.649 39.0849 146.612 39.0849 146.649 37.5527C146.577 34.3136 147.221 31.0989 148.534 28.1405C149.671 25.8385 151.291 23.8117 153.281 22.1995C155.271 20.5874 157.584 19.4281 160.062 18.8013C165.243 17.2759 170.776 17.4807 175.832 19.385H176.231C178.913 20.516 179.421 21.6469 178.333 24.31C177.935 25.222 177.572 26.1706 177.137 27.1191C177.017 27.5598 176.798 27.9667 176.496 28.3076C176.193 28.6486 175.816 28.9144 175.395 29.0841C174.973 29.2538 174.518 29.3228 174.066 29.2856C173.613 29.2485 173.175 29.1063 172.787 28.8702C170.696 28.044 168.4 27.9036 166.225 28.4689C164.582 28.8132 163.096 29.6867 161.99 30.9571C160.885 32.2275 160.221 33.8256 160.098 35.5098C159.736 39.1579 159.736 39.1579 163.397 39.1579H170.322C173.367 39.1579 174.563 40.3982 174.599 43.3897C174.654 44.2887 174.654 45.1903 174.599 46.0893C174.58 46.8603 174.263 47.5933 173.714 48.1318C173.165 48.6703 172.429 48.9716 171.663 48.9713C169.596 48.9713 167.53 48.9713 165.5 48.9713C164.16 49.0446 162.816 49.0446 161.476 48.9713C160.425 48.9713 160.171 49.3361 160.171 50.3211C160.171 56.1217 160.171 61.9222 160.171 67.7227" fill="#FFFFFF"/>
<path d="M332.733 62.3597C332.733 58.3833 332.733 54.3703 332.733 50.3574C332.733 49.2265 332.37 49.0076 331.355 49.0076C329.98 49.1171 328.598 49.1171 327.222 49.0076C326.421 49.0174 325.648 48.7089 325.071 48.1488C324.494 47.5888 324.16 46.8225 324.141 46.0161C323.978 44.5859 323.978 43.1416 324.141 41.7113C324.193 41.1068 324.459 40.5413 324.892 40.119C325.325 39.6967 325.895 39.446 326.497 39.413C328.134 39.2189 329.781 39.1336 331.428 39.1577C332.37 39.1577 332.66 38.9023 332.624 37.9173C332.624 34.2692 332.624 30.621 332.624 26.9729C332.542 26.471 332.565 25.9575 332.692 25.4651C332.819 24.9728 333.047 24.5127 333.361 24.1142C333.675 23.7157 334.068 23.3877 334.516 23.1512C334.963 22.9147 335.455 22.775 335.959 22.7411L341.905 21.4642C342.315 21.3494 342.746 21.3281 343.165 21.402C343.585 21.4758 343.983 21.6428 344.33 21.891C344.677 22.1391 344.965 22.462 345.173 22.8363C345.38 23.2106 345.502 23.6267 345.53 24.0544C345.584 24.7221 345.584 25.3932 345.53 26.0609V37.3701C345.53 38.9752 345.53 38.9752 347.161 38.9752H355.862C356.477 38.9214 357.096 38.9214 357.711 38.9752C358.344 39.0538 358.931 39.3451 359.379 39.802C359.826 40.259 360.107 40.8547 360.176 41.4925C360.375 43.0914 360.375 44.7091 360.176 46.308C360.079 46.9387 359.771 47.5172 359.303 47.9483C358.835 48.3793 358.235 48.6371 357.602 48.6793C356.987 48.7335 356.368 48.7335 355.753 48.6793H346.726C345.965 48.6793 345.639 48.8981 345.639 49.7737C345.639 56.8511 345.639 63.9649 345.639 71.0788C345.65 72.2068 345.771 73.331 346.001 74.435C346.179 75.2612 346.53 76.0396 347.031 76.7184C347.532 77.3973 348.17 77.9609 348.904 78.3717C349.639 78.7825 350.451 79.0311 351.289 79.1009C352.126 79.1706 352.968 79.06 353.759 78.7763C354.877 78.4203 355.957 77.956 356.986 77.39C358.726 76.5145 359.705 76.7333 360.611 78.448C361.456 80.1436 362.206 81.8852 362.859 83.6648C363.094 84.24 363.11 84.8827 362.902 85.4688C362.695 86.0549 362.279 86.5429 361.735 86.8386C359.981 88.377 357.876 89.4548 355.608 89.976C350.787 91.401 345.609 90.9451 341.107 88.6992C339.081 87.6891 337.318 86.2163 335.958 84.3984C334.599 82.5805 333.68 80.4678 333.277 78.2291C332.94 76.1541 332.758 74.0566 332.733 71.9543C332.733 68.7804 332.733 65.5701 332.733 62.3597Z" fill="#FFFFFF"/>
<path d="M190.514 46.3448C191.747 45.0679 192.762 43.9005 193.886 42.9155C195.617 41.4026 197.657 40.2915 199.862 39.661C202.068 39.0305 204.384 38.8962 206.647 39.2674C207.877 39.4031 209.091 39.6597 210.272 40.0335C212.374 40.6902 212.955 41.7117 212.447 43.6817C211.939 45.6516 211.577 47.3298 211.069 48.862C210.977 49.2776 210.794 49.6674 210.534 50.0034C210.274 50.3394 209.943 50.6132 209.565 50.805C209.187 50.9969 208.772 51.1021 208.348 51.1131C207.925 51.124 207.505 51.0405 207.118 50.8685C204.67 49.9949 202.018 49.8805 199.505 50.5401C197.645 51.0862 195.991 52.1813 194.757 53.6837C193.522 55.1861 192.764 57.0266 192.581 58.9673C192.338 60.5724 192.24 62.1965 192.291 63.8193C192.291 70.6048 192.291 77.4268 192.291 84.2123C192.327 84.7589 192.327 85.3074 192.291 85.854C192.262 86.6863 191.914 87.475 191.319 88.0536C190.723 88.6322 189.928 88.9554 189.1 88.9549C186.853 88.9549 184.641 88.9549 182.43 88.9549C181.564 88.9652 180.727 88.6359 180.098 88.0367C179.469 87.4375 179.096 86.6155 179.058 85.7445C179.058 85.2338 179.058 84.6866 179.058 84.1758V44.5207C179.022 43.9498 179.022 43.377 179.058 42.8061C179.08 42.1432 179.337 41.5101 179.782 41.0214C180.228 40.5328 180.833 40.2212 181.487 40.143C183.476 39.9421 185.48 39.9421 187.469 40.143C187.889 40.1657 188.299 40.2735 188.676 40.4599C189.053 40.6463 189.389 40.9075 189.664 41.2278C189.938 41.5481 190.145 41.9209 190.272 42.3238C190.4 42.7266 190.445 43.1513 190.405 43.5722C190.463 44.532 190.463 45.4944 190.405 46.4542" fill="#FFFFFF"/>
<path d="M45.9028 47.5848L43.2926 44.9946L24.1151 64.2932C21.5735 66.8431 20.121 70.2903 20.0669 73.9015C20.0127 77.5126 21.3611 81.0024 23.825 83.6283V83.8107L42.6763 102.781C46.473 98.9511 48.6051 93.7623 48.6051 88.3526C48.6051 82.9429 46.473 77.7541 42.6763 73.9243L40.1749 71.4071L44.9965 66.5915C47.6112 64.186 49.1741 60.8372 49.3439 57.2762C49.5137 53.7152 48.2767 50.2312 45.9028 47.5848Z" fill="#FFFFFF"/>
<path d="M99.4478 43.0613L96.4389 40.0334L63.1228 6.58008C61.2342 8.4716 59.7356 10.72 58.713 13.196C57.6904 15.6721 57.1639 18.327 57.1639 21.0084C57.1639 23.6898 57.6904 26.3448 58.713 28.8208C59.7356 31.2969 61.2342 33.5452 63.1228 35.4368L82.0829 54.5529L62.9778 73.815C61.0892 75.7066 59.5906 77.9549 58.5679 80.431C57.5453 82.907 57.0189 85.562 57.0189 88.2434C57.0189 90.9248 57.5453 93.5797 58.5679 96.0558C59.5906 98.5318 61.0892 100.78 62.9778 102.672L98.1065 67.3214L99.3028 66.1175C102.351 63.0742 104.077 58.9402 104.104 54.6195C104.131 50.2989 102.457 46.1432 99.4478 43.0613Z" fill="#FFFFFF"/>
<path d="M42.8939 6.76248L42.7126 6.58008L6.75014 42.806C5.50822 44.053 4.52292 45.5343 3.85065 47.165C3.17838 48.7957 2.83234 50.5438 2.83234 52.3093C2.83234 54.0748 3.17838 55.823 3.85065 57.4537C4.52292 59.0844 5.50822 60.5657 6.75014 61.8127L11.7892 66.8836L42.8939 35.7651C44.7956 33.866 46.305 31.607 47.335 29.1181C48.3651 26.6292 48.8954 23.9598 48.8954 21.2638C48.8954 18.5677 48.3651 15.8983 47.335 13.4095C46.305 10.9206 44.7956 8.66154 42.8939 6.76248Z" fill="#FFFFFF"/>
</g>
<defs>
<clipPath id="clip0">
<path d="M0 0H560V107H0V0Z" fill="white"/>
</clipPath>
</defs>
</svg>
