<svg width="110" height="107" viewBox="0 0 110 107" fill="none" xmlns="http://www.w3.org/2000/svg">
<path d="M45.9028 47.5848L43.2926 44.9946L24.1151 64.2932C21.5735 66.8431 20.121 70.2903 20.0669 73.9015C20.0127 77.5126 21.3611 81.0024 23.825 83.6283V83.8107L42.6763 102.781C46.473 98.9511 48.6051 93.7623 48.6051 88.3526C48.6051 82.9429 46.473 77.7541 42.6763 73.9243L40.1749 71.4071L44.9965 66.5915C47.6112 64.186 49.1741 60.8372 49.3439 57.2762C49.5137 53.7152 48.2767 50.2312 45.9028 47.5848Z" fill="none" stroke="#D4D2DC" stroke-width="0.6" stroke-linejoin="round"/>
<path d="M99.4478 43.0613L96.4389 40.0334L63.1228 6.58008C61.2342 8.4716 59.7356 10.72 58.713 13.196C57.6904 15.6721 57.1639 18.327 57.1639 21.0084C57.1639 23.6898 57.6904 26.3448 58.713 28.8208C59.7356 31.2969 61.2342 33.5452 63.1228 35.4368L82.0829 54.5529L62.9778 73.815C61.0892 75.7066 59.5906 77.9549 58.5679 80.431C57.5453 82.907 57.0189 85.562 57.0189 88.2434C57.0189 90.9248 57.5453 93.5797 58.5679 96.0558C59.5906 98.5318 61.0892 100.78 62.9778 102.672L98.1065 67.3214L99.3028 66.1175C102.351 63.0742 104.077 58.9402 104.104 54.6195C104.131 50.2989 102.457 46.1432 99.4478 43.0613Z" fill="none" stroke="#D4D2DC" stroke-width="0.6" stroke-linejoin="round"/>
<path d="M42.8939 6.76248L42.7126 6.58008L6.75014 42.806C5.50822 44.053 4.52292 45.5343 3.85065 47.165C3.17838 48.7957 2.83234 50.5438 2.83234 52.3093C2.83234 54.0748 3.17838 55.823 3.85065 57.4537C4.52292 59.0844 5.50822 60.5657 6.75014 61.8127L11.7892 66.8836L42.8939 35.7651C44.7956 33.866 46.305 31.607 47.335 29.1181C48.3651 26.6292 48.8954 23.9598 48.8954 21.2638C48.8954 18.5677 48.3651 15.8983 47.335 13.4095C46.305 10.9206 44.7956 8.66154 42.8939 6.76248Z" fill="none" stroke="#D4D2DC" stroke-width="0.6" stroke-linejoin="round"/>
</svg>
